<svg xmlns="http://www.w3.org/2000/svg" xmlns:xlink="http://www.w3.org/1999/xlink" viewBox="0 0 30 30" fill="#1D3557">
  <path d="M26.482422 3.9277344C26.319666 3.922312 26.141471 3.9273572 25.953125 3.9492188C25.351912 4.0190022 24.599169 4.2762316 23.859375 4.8320312C22.132254 3.5488299 20.749625 4.0915678 20.332031 4.2734375C18.848031 4.9194375 14.485937 3.9125 9.3359375 9.0625C4.6659375 13.7325 5.5585781 18.754594 4.5175781 21.183594C4.1815781 21.967594 3.469875 24.126125 4.671875 25.328125C5.873875 26.530125 8.0324063 25.818422 8.8164062 25.482422C11.245406 24.442422 16.2665 25.335062 20.9375 20.664062C26.0875 15.514062 25.080563 11.151969 25.726562 9.6679688C25.90349 9.2617235 26.416701 7.9407348 25.263672 6.2792969C25.621562 6.0517171 25.936588 5.9642171 26.183594 5.9355469C26.550209 5.8929929 26.6875 5.9492187 26.6875 5.9492188 A 1.0001 1.0001 0 1 0 27.3125 4.0507812C27.3125 4.0507812 26.970691 3.9440017 26.482422 3.9277344 z M 19.152344 6.6445312C19.268219 6.6639062 19.378922 6.74025 19.482422 6.84375C19.689422 7.05075 19.768203 7.3040625 19.533203 7.5390625C19.298203 7.7740625 19.044891 7.6952812 18.837891 7.4882812C18.630891 7.2812813 18.527156 7.0509688 18.785156 6.7929688C18.914156 6.6639688 19.036469 6.6251563 19.152344 6.6445312 z M 16.660156 7.4179688C16.921391 7.3422187 17.185953 7.512875 17.439453 7.765625C17.777453 8.103625 17.936047 8.4926875 17.623047 8.8046875C17.311047 9.1166875 16.920984 8.9580937 16.583984 8.6210938C16.246984 8.2830937 16.058391 7.9250312 16.400391 7.5820312C16.486141 7.4962813 16.573078 7.4432187 16.660156 7.4179688 z M 20.544922 8.2070312C20.789984 8.1680313 21.086687 8.3523125 21.367188 8.6328125C21.742188 9.0078125 21.972781 9.3856406 21.675781 9.6816406C21.378781 9.9776406 21.000953 9.7470469 20.626953 9.3730469C20.252953 8.9980469 20.048359 8.5942187 20.318359 8.3242188C20.385859 8.2567188 20.463234 8.2200312 20.544922 8.2070312 z M 14.353516 8.6152344C14.651328 8.6254492 14.957656 8.8424219 15.253906 9.1386719C15.727906 9.6126719 15.957922 10.1485 15.544922 10.5625C15.131922 10.9765 14.593141 10.745484 14.119141 10.271484C13.646141 9.7984844 13.374125 9.3016563 13.828125 8.8476562C13.998375 8.6774063 14.174828 8.6091055 14.353516 8.6152344 z M 18.917969 9.3554688C19.260244 9.3974512 19.648203 9.6599219 20.017578 10.029297C20.608578 10.620297 20.970906 11.215594 20.503906 11.683594C20.036906 12.150594 19.440609 11.788266 18.849609 11.197266C18.258609 10.606266 17.937281 9.9709219 18.363281 9.5449219C18.523031 9.3851719 18.712604 9.3302793 18.917969 9.3554688 z M 12.042969 10.255859C12.382461 10.245547 12.715 10.470859 13.03125 10.787109C13.53725 11.293109 13.760813 11.890578 13.257812 12.392578C12.754812 12.895578 12.158344 12.670062 11.652344 12.164062C11.146344 11.658062 10.873781 11.112547 11.425781 10.560547C11.632781 10.353547 11.839273 10.262047 12.042969 10.255859 z M 22.818359 10.326172C22.937109 10.342672 23.05275 10.414078 23.15625 10.517578C23.36325 10.724578 23.465031 10.956844 23.207031 11.214844C22.949031 11.472844 22.718719 11.369109 22.511719 11.162109C22.304719 10.955109 22.225937 10.701797 22.460938 10.466797C22.578437 10.349297 22.699609 10.309672 22.818359 10.326172 z M 16.880859 11.035156C17.283066 11.084531 17.738125 11.394375 18.171875 11.828125C18.865875 12.522125 19.291188 13.220531 18.742188 13.769531C18.193188 14.318531 17.494781 13.893219 16.800781 13.199219C16.106781 12.505219 15.728516 11.758812 16.228516 11.257812C16.416016 11.070312 16.639535 11.005531 16.880859 11.035156 z M 21.705078 12.224609C21.883578 12.267234 22.065375 12.392047 22.234375 12.560547C22.571375 12.897547 22.760969 13.256609 22.417969 13.599609C22.074969 13.942609 21.715906 13.753016 21.378906 13.416016C21.040906 13.079016 20.883313 12.688953 21.195312 12.376953C21.351312 12.220953 21.526578 12.181984 21.705078 12.224609 z M 10.304688 12.666016C10.6025 12.67623 10.906875 12.893203 11.203125 13.189453C11.677125 13.663453 11.907141 14.199281 11.494141 14.613281C11.081141 15.027281 10.544313 14.796266 10.070312 14.322266C9.5963125 13.848266 9.3252969 13.351437 9.7792969 12.898438C9.9495469 12.728188 10.126 12.659887 10.304688 12.666016 z M 14.78125 12.974609C15.214629 13.02791 15.705 13.36125 16.171875 13.828125C16.919875 14.576125 17.377156 15.330875 16.785156 15.921875C16.194156 16.513875 15.441359 16.053641 14.693359 15.306641C13.945359 14.558641 13.539125 13.753844 14.078125 13.214844C14.28025 13.012719 14.521223 12.942629 14.78125 12.974609 z M 19.767578 14.259766C20.115063 14.172438 20.505828 14.390594 20.861328 14.746094C21.334328 15.219094 21.606344 15.717875 21.152344 16.171875C20.698344 16.625875 20.202516 16.354859 19.728516 15.880859C19.254516 15.406859 19.0245 14.869078 19.4375 14.455078C19.54075 14.351828 19.65175 14.288875 19.767578 14.259766 z M 8.5664062 15.103516C8.8569844 15.030672 9.1631875 15.23425 9.4609375 15.53125C9.8579375 15.92725 10.053797 16.373938 9.7167969 16.710938C9.3797969 17.047937 8.9341094 16.851078 8.5371094 16.455078C8.1401094 16.059078 7.91225 15.644391 8.28125 15.275391C8.37375 15.182891 8.4695469 15.127797 8.5664062 15.103516 z M 12.777344 15.140625C13.179551 15.19 13.634609 15.499844 14.068359 15.933594C14.761359 16.627594 15.187672 17.326 14.638672 17.875C14.089672 18.424 13.391266 17.998688 12.697266 17.304688C12.003266 16.610688 11.626953 15.861328 12.126953 15.361328C12.314453 15.173828 12.53602 15.111 12.777344 15.140625 z M 18.203125 16.458984C18.54501 16.446279 18.896641 16.6525 19.212891 16.96875C19.718891 17.47475 19.991453 18.022219 19.439453 18.574219C18.887453 19.126219 18.341938 18.853656 17.835938 18.347656C17.329937 17.841656 17.104422 17.244187 17.607422 16.742188C17.796047 16.553562 17.997994 16.466607 18.203125 16.458984 z M 10.957031 17.316406C11.299307 17.358389 11.685312 17.620859 12.054688 17.990234C12.645688 18.581234 13.009016 19.177531 12.541016 19.644531C12.074016 20.111531 11.479672 19.749203 10.888672 19.158203C10.297672 18.567203 9.9763438 17.931859 10.402344 17.505859C10.562094 17.346109 10.751666 17.291217 10.957031 17.316406 z M 7.5839844 17.458984C7.8137188 17.397344 8.0525 17.5525 8.28125 17.78125C8.58625 18.08625 8.7348437 18.433125 8.4648438 18.703125C8.1948438 18.973125 7.8460156 18.826484 7.5410156 18.521484C7.2360156 18.215484 7.0614219 17.893656 7.3574219 17.597656C7.4314219 17.523656 7.5074062 17.479531 7.5839844 17.458984 z M 15.716797 18.310547C16.064281 18.223219 16.455047 18.441375 16.810547 18.796875C17.284547 19.270875 17.555563 19.766703 17.101562 20.220703C16.647562 20.674703 16.151734 20.403688 15.677734 19.929688C15.203734 19.455687 14.973719 18.919859 15.386719 18.505859C15.489969 18.402609 15.600969 18.339656 15.716797 18.310547 z M 9.4277344 19.324219C9.6727969 19.285219 9.9714531 19.4695 10.251953 19.75C10.625953 20.124 10.854594 20.502828 10.558594 20.798828C10.262594 21.094828 9.8857187 20.864234 9.5117188 20.490234C9.1367188 20.115234 8.933125 19.711406 9.203125 19.441406C9.270625 19.373906 9.3460469 19.337219 9.4277344 19.324219 z M 13.558594 20.126953C13.844531 20.05875 14.171 20.242062 14.46875 20.539062C14.86475 20.935062 15.094609 21.34875 14.724609 21.71875C14.354609 22.08875 13.941922 21.858891 13.544922 21.462891C13.148922 21.066891 12.952063 20.620203 13.289062 20.283203C13.373313 20.198953 13.463281 20.149687 13.558594 20.126953 z M 8.5507812 20.927734C8.6627813 20.948984 8.7754531 21.021547 8.8769531 21.123047C9.0809531 21.326047 9.1870313 21.548344 8.9570312 21.777344C8.7280313 22.006344 8.5067344 21.898313 8.3027344 21.695312C8.0997344 21.492313 8.0136563 21.250969 8.2226562 21.042969C8.3271562 20.938469 8.4387812 20.906484 8.5507812 20.927734 z M 11.511719 21.408203C11.737797 21.350219 11.99 21.49 12.21875 21.71875C12.52475 22.02375 12.699344 22.345578 12.402344 22.642578C12.106344 22.938578 11.783516 22.763984 11.478516 22.458984C11.173516 22.153984 11.026875 21.805156 11.296875 21.535156C11.364375 21.467656 11.436359 21.427531 11.511719 21.408203 z" fill="#1D3557" />
</svg>